<svg xmlns="http://www.w3.org/2000/svg" xmlns:xlink="http://www.w3.org/1999/xlink" version="1.1" width="24px" height="24px" viewBox="-0.5 -0.5 24 24"><defs/><g><path d="M 5.92 10.98 L 11.3 13.56 L 11.3 19.91 L 5.92 22.49 L 0.54 19.91 L 0.54 13.56 Z" fill="none" stroke="rgb(0, 0, 0)" stroke-opacity="0.8" stroke-width="1.08" stroke-miterlimit="10" pointer-events="all"/><path d="M 0.54 13.56 L 5.92 16.14 L 11.3 13.56 M 5.92 16.14 L 5.92 22.49" fill="none" stroke="rgb(0, 0, 0)" stroke-opacity="0.8" stroke-width="1.08" stroke-miterlimit="10" pointer-events="all"/><path d="M 18.08 11.08 L 23.46 13.67 L 23.46 20.01 L 18.08 22.6 L 12.7 20.01 L 12.7 13.67 Z" fill="none" stroke="rgb(0, 0, 0)" stroke-opacity="0.8" stroke-width="1.08" stroke-miterlimit="10" pointer-events="all"/><path d="M 12.7 13.67 L 18.08 16.25 L 23.46 13.67 M 18.08 16.25 L 18.08 22.6" fill="none" stroke="rgb(0, 0, 0)" stroke-opacity="0.8" stroke-width="1.08" stroke-miterlimit="10" pointer-events="all"/><path d="M 11.94 0.54 L 17.32 3.12 L 17.32 9.47 L 11.94 12.05 L 6.56 9.47 L 6.56 3.12 Z" fill="none" stroke="rgb(0, 0, 0)" stroke-opacity="0.8" stroke-width="1.08" stroke-miterlimit="10" pointer-events="all"/><path d="M 6.56 3.12 L 11.94 5.7 L 17.32 3.12 M 11.94 5.7 L 11.94 12.05" fill="none" stroke="rgb(0, 0, 0)" stroke-opacity="0.8" stroke-width="1.08" stroke-miterlimit="10" pointer-events="all"/></g></svg>